<mxfile host="Electron" modified="2024-07-03T09:39:01.566Z" agent="Mozilla/5.0 (X11; Linux x86_64) AppleWebKit/537.36 (KHTML, like Gecko) draw.io/24.2.5 Chrome/120.0.6099.109 Electron/28.1.0 Safari/537.36" etag="EyTEk92f-67I60hRmLRx" version="24.2.5" type="device">
  <diagram name="Page-1" id="LznCcgv3BS2J9Vq8wZ48">
    <mxGraphModel dx="1434" dy="835" grid="1" gridSize="10" guides="1" tooltips="1" connect="1" arrows="1" fold="1" page="1" pageScale="1" pageWidth="850" pageHeight="1100" math="0" shadow="0">
      <root>
        <mxCell id="2uTVPKC6mBXRzxm8aPr7-0" />
        <mxCell id="2uTVPKC6mBXRzxm8aPr7-1" parent="2uTVPKC6mBXRzxm8aPr7-0" />
        <mxCell id="Btw7lg7nnHDqA9ZqbLAq-6" style="edgeStyle=orthogonalEdgeStyle;rounded=1;orthogonalLoop=1;jettySize=auto;html=1;shadow=0;strokeColor=#6c8ebf;strokeWidth=1;fontFamily=Ubuntu;fontSize=14;fontStyle=0;endArrow=block;endFill=1;fillColor=#dae8fc;entryX=0.5;entryY=1;entryDx=0;entryDy=0;exitX=0.5;exitY=1;exitDx=0;exitDy=0;startArrow=block;startFill=1;" parent="2uTVPKC6mBXRzxm8aPr7-1" edge="1">
          <mxGeometry relative="1" as="geometry">
            <mxPoint x="260" y="360" as="targetPoint" />
          </mxGeometry>
        </mxCell>
        <mxCell id="VTdq1yK0WobwU7QvJU6q-4" value="9" style="rounded=0;whiteSpace=wrap;html=1;shadow=0;strokeColor=#6c8ebf;strokeWidth=1;fontFamily=Ubuntu;fontSize=16;fontStyle=0;fillColor=#dae8fc;" parent="2uTVPKC6mBXRzxm8aPr7-1" vertex="1">
          <mxGeometry x="140" y="440" width="40" height="40" as="geometry" />
        </mxCell>
        <mxCell id="VTdq1yK0WobwU7QvJU6q-5" value="4" style="rounded=0;whiteSpace=wrap;html=1;shadow=0;strokeColor=#6c8ebf;strokeWidth=1;fontFamily=Ubuntu;fontSize=16;fontStyle=0;fillColor=#dae8fc;" parent="2uTVPKC6mBXRzxm8aPr7-1" vertex="1">
          <mxGeometry x="220" y="440" width="40" height="40" as="geometry" />
        </mxCell>
        <mxCell id="VTdq1yK0WobwU7QvJU6q-6" value="1" style="rounded=0;whiteSpace=wrap;html=1;shadow=0;strokeColor=#6c8ebf;strokeWidth=1;fontFamily=Ubuntu;fontSize=16;fontStyle=0;fillColor=#dae8fc;" parent="2uTVPKC6mBXRzxm8aPr7-1" vertex="1">
          <mxGeometry x="300" y="440" width="40" height="40" as="geometry" />
        </mxCell>
        <mxCell id="VTdq1yK0WobwU7QvJU6q-7" value="7" style="rounded=0;whiteSpace=wrap;html=1;shadow=0;strokeColor=#6c8ebf;strokeWidth=1;fontFamily=Ubuntu;fontSize=16;fontStyle=0;fillColor=#dae8fc;" parent="2uTVPKC6mBXRzxm8aPr7-1" vertex="1">
          <mxGeometry x="380" y="440" width="40" height="40" as="geometry" />
        </mxCell>
        <mxCell id="VTdq1yK0WobwU7QvJU6q-15" value="4" style="rounded=0;whiteSpace=wrap;html=1;shadow=0;strokeColor=#6c8ebf;strokeWidth=1;fontFamily=Ubuntu;fontSize=16;fontStyle=0;fillColor=#dae8fc;" parent="2uTVPKC6mBXRzxm8aPr7-1" vertex="1">
          <mxGeometry x="160" y="560" width="40" height="40" as="geometry" />
        </mxCell>
        <mxCell id="VTdq1yK0WobwU7QvJU6q-16" value="9" style="rounded=0;whiteSpace=wrap;html=1;shadow=0;strokeColor=#6c8ebf;strokeWidth=1;fontFamily=Ubuntu;fontSize=16;fontStyle=0;fillColor=#dae8fc;" parent="2uTVPKC6mBXRzxm8aPr7-1" vertex="1">
          <mxGeometry x="200" y="560" width="40" height="40" as="geometry" />
        </mxCell>
        <mxCell id="xuVGkZKa3LN1IdFfRrhP-0" value="合并" style="text;html=1;align=center;verticalAlign=middle;whiteSpace=wrap;rounded=0;fontFamily=Ubuntu;fontSize=16;fontStyle=0;" vertex="1" parent="2uTVPKC6mBXRzxm8aPr7-1">
          <mxGeometry x="170" y="510" width="60" height="30" as="geometry" />
        </mxCell>
        <mxCell id="xuVGkZKa3LN1IdFfRrhP-3" value="" style="endArrow=none;dashed=1;html=1;rounded=1;shadow=0;strokeColor=#6c8ebf;strokeWidth=1;fontFamily=Ubuntu;fontSize=14;fontStyle=0;fillColor=#dae8fc;exitX=0.5;exitY=1;exitDx=0;exitDy=0;entryX=0.25;entryY=0;entryDx=0;entryDy=0;" edge="1" parent="2uTVPKC6mBXRzxm8aPr7-1" source="VTdq1yK0WobwU7QvJU6q-4" target="xuVGkZKa3LN1IdFfRrhP-0">
          <mxGeometry width="50" height="50" relative="1" as="geometry">
            <mxPoint x="400" y="450" as="sourcePoint" />
            <mxPoint x="450" y="400" as="targetPoint" />
          </mxGeometry>
        </mxCell>
        <mxCell id="xuVGkZKa3LN1IdFfRrhP-4" value="" style="endArrow=none;dashed=1;html=1;rounded=1;shadow=0;strokeColor=#6c8ebf;strokeWidth=1;fontFamily=Ubuntu;fontSize=14;fontStyle=0;fillColor=#dae8fc;exitX=0.5;exitY=1;exitDx=0;exitDy=0;" edge="1" parent="2uTVPKC6mBXRzxm8aPr7-1" source="VTdq1yK0WobwU7QvJU6q-5" target="xuVGkZKa3LN1IdFfRrhP-0">
          <mxGeometry width="50" height="50" relative="1" as="geometry">
            <mxPoint x="400" y="450" as="sourcePoint" />
            <mxPoint x="450" y="400" as="targetPoint" />
          </mxGeometry>
        </mxCell>
        <mxCell id="xuVGkZKa3LN1IdFfRrhP-5" value="" style="endArrow=none;dashed=1;html=1;rounded=1;shadow=0;strokeColor=#6c8ebf;strokeWidth=1;fontFamily=Ubuntu;fontSize=14;fontStyle=0;fillColor=#dae8fc;exitX=0.5;exitY=1;exitDx=0;exitDy=0;entryX=0;entryY=0;entryDx=0;entryDy=0;" edge="1" parent="2uTVPKC6mBXRzxm8aPr7-1" source="xuVGkZKa3LN1IdFfRrhP-0" target="VTdq1yK0WobwU7QvJU6q-16">
          <mxGeometry width="50" height="50" relative="1" as="geometry">
            <mxPoint x="400" y="450" as="sourcePoint" />
            <mxPoint x="450" y="400" as="targetPoint" />
          </mxGeometry>
        </mxCell>
        <mxCell id="xuVGkZKa3LN1IdFfRrhP-6" value="合并" style="text;html=1;align=center;verticalAlign=middle;whiteSpace=wrap;rounded=0;fontFamily=Ubuntu;fontSize=16;fontStyle=0;" vertex="1" parent="2uTVPKC6mBXRzxm8aPr7-1">
          <mxGeometry x="330" y="510" width="60" height="30" as="geometry" />
        </mxCell>
        <mxCell id="xuVGkZKa3LN1IdFfRrhP-7" value="" style="endArrow=none;dashed=1;html=1;rounded=1;shadow=0;strokeColor=#6c8ebf;strokeWidth=1;fontFamily=Ubuntu;fontSize=14;fontStyle=0;fillColor=#dae8fc;entryX=0.5;entryY=1;entryDx=0;entryDy=0;exitX=0.25;exitY=0;exitDx=0;exitDy=0;" edge="1" parent="2uTVPKC6mBXRzxm8aPr7-1" source="xuVGkZKa3LN1IdFfRrhP-6" target="VTdq1yK0WobwU7QvJU6q-6">
          <mxGeometry width="50" height="50" relative="1" as="geometry">
            <mxPoint x="400" y="450" as="sourcePoint" />
            <mxPoint x="450" y="400" as="targetPoint" />
          </mxGeometry>
        </mxCell>
        <mxCell id="xuVGkZKa3LN1IdFfRrhP-8" value="" style="endArrow=none;dashed=1;html=1;rounded=1;shadow=0;strokeColor=#6c8ebf;strokeWidth=1;fontFamily=Ubuntu;fontSize=14;fontStyle=0;fillColor=#dae8fc;exitX=0.5;exitY=1;exitDx=0;exitDy=0;" edge="1" parent="2uTVPKC6mBXRzxm8aPr7-1" source="VTdq1yK0WobwU7QvJU6q-7" target="xuVGkZKa3LN1IdFfRrhP-6">
          <mxGeometry width="50" height="50" relative="1" as="geometry">
            <mxPoint x="400" y="450" as="sourcePoint" />
            <mxPoint x="450" y="400" as="targetPoint" />
          </mxGeometry>
        </mxCell>
        <mxCell id="xuVGkZKa3LN1IdFfRrhP-9" value="1" style="rounded=0;whiteSpace=wrap;html=1;shadow=0;strokeColor=#6c8ebf;strokeWidth=1;fontFamily=Ubuntu;fontSize=16;fontStyle=0;fillColor=#dae8fc;" vertex="1" parent="2uTVPKC6mBXRzxm8aPr7-1">
          <mxGeometry x="320" y="560" width="40" height="40" as="geometry" />
        </mxCell>
        <mxCell id="xuVGkZKa3LN1IdFfRrhP-10" value="7" style="rounded=0;whiteSpace=wrap;html=1;shadow=0;strokeColor=#6c8ebf;strokeWidth=1;fontFamily=Ubuntu;fontSize=16;fontStyle=0;fillColor=#dae8fc;" vertex="1" parent="2uTVPKC6mBXRzxm8aPr7-1">
          <mxGeometry x="360" y="560" width="40" height="40" as="geometry" />
        </mxCell>
        <mxCell id="xuVGkZKa3LN1IdFfRrhP-11" value="" style="endArrow=none;dashed=1;html=1;rounded=1;shadow=0;strokeColor=#6c8ebf;strokeWidth=1;fontFamily=Ubuntu;fontSize=14;fontStyle=0;fillColor=#dae8fc;entryX=0;entryY=0;entryDx=0;entryDy=0;exitX=0.5;exitY=1;exitDx=0;exitDy=0;" edge="1" parent="2uTVPKC6mBXRzxm8aPr7-1" source="xuVGkZKa3LN1IdFfRrhP-6" target="xuVGkZKa3LN1IdFfRrhP-10">
          <mxGeometry width="50" height="50" relative="1" as="geometry">
            <mxPoint x="400" y="450" as="sourcePoint" />
            <mxPoint x="450" y="400" as="targetPoint" />
          </mxGeometry>
        </mxCell>
        <mxCell id="xuVGkZKa3LN1IdFfRrhP-12" value="合并" style="text;html=1;align=center;verticalAlign=middle;whiteSpace=wrap;rounded=0;fontFamily=Ubuntu;fontSize=16;fontStyle=0;" vertex="1" parent="2uTVPKC6mBXRzxm8aPr7-1">
          <mxGeometry x="250" y="640" width="60" height="30" as="geometry" />
        </mxCell>
        <mxCell id="xuVGkZKa3LN1IdFfRrhP-13" value="" style="endArrow=none;dashed=1;html=1;rounded=1;shadow=0;strokeColor=#6c8ebf;strokeWidth=1;fontFamily=Ubuntu;fontSize=14;fontStyle=0;fillColor=#dae8fc;exitX=0;exitY=1;exitDx=0;exitDy=0;entryX=0.25;entryY=0;entryDx=0;entryDy=0;" edge="1" parent="2uTVPKC6mBXRzxm8aPr7-1" source="VTdq1yK0WobwU7QvJU6q-16" target="xuVGkZKa3LN1IdFfRrhP-12">
          <mxGeometry width="50" height="50" relative="1" as="geometry">
            <mxPoint x="400" y="450" as="sourcePoint" />
            <mxPoint x="450" y="400" as="targetPoint" />
          </mxGeometry>
        </mxCell>
        <mxCell id="xuVGkZKa3LN1IdFfRrhP-14" value="" style="endArrow=none;dashed=1;html=1;rounded=1;shadow=0;strokeColor=#6c8ebf;strokeWidth=1;fontFamily=Ubuntu;fontSize=14;fontStyle=0;fillColor=#dae8fc;exitX=0;exitY=1;exitDx=0;exitDy=0;entryX=0.75;entryY=0;entryDx=0;entryDy=0;" edge="1" parent="2uTVPKC6mBXRzxm8aPr7-1" source="xuVGkZKa3LN1IdFfRrhP-10" target="xuVGkZKa3LN1IdFfRrhP-12">
          <mxGeometry width="50" height="50" relative="1" as="geometry">
            <mxPoint x="400" y="450" as="sourcePoint" />
            <mxPoint x="450" y="400" as="targetPoint" />
          </mxGeometry>
        </mxCell>
        <mxCell id="xuVGkZKa3LN1IdFfRrhP-15" value="1" style="rounded=0;whiteSpace=wrap;html=1;shadow=0;strokeColor=#6c8ebf;strokeWidth=1;fontFamily=Ubuntu;fontSize=16;fontStyle=0;fillColor=#dae8fc;" vertex="1" parent="2uTVPKC6mBXRzxm8aPr7-1">
          <mxGeometry x="200" y="702" width="40" height="40" as="geometry" />
        </mxCell>
        <mxCell id="xuVGkZKa3LN1IdFfRrhP-16" value="4" style="rounded=0;whiteSpace=wrap;html=1;shadow=0;strokeColor=#6c8ebf;strokeWidth=1;fontFamily=Ubuntu;fontSize=16;fontStyle=0;fillColor=#dae8fc;" vertex="1" parent="2uTVPKC6mBXRzxm8aPr7-1">
          <mxGeometry x="240" y="702" width="40" height="40" as="geometry" />
        </mxCell>
        <mxCell id="xuVGkZKa3LN1IdFfRrhP-18" value="7" style="rounded=0;whiteSpace=wrap;html=1;shadow=0;strokeColor=#6c8ebf;strokeWidth=1;fontFamily=Ubuntu;fontSize=16;fontStyle=0;fillColor=#dae8fc;" vertex="1" parent="2uTVPKC6mBXRzxm8aPr7-1">
          <mxGeometry x="280" y="702" width="40" height="40" as="geometry" />
        </mxCell>
        <mxCell id="xuVGkZKa3LN1IdFfRrhP-19" value="9" style="rounded=0;whiteSpace=wrap;html=1;shadow=0;strokeColor=#6c8ebf;strokeWidth=1;fontFamily=Ubuntu;fontSize=16;fontStyle=0;fillColor=#dae8fc;" vertex="1" parent="2uTVPKC6mBXRzxm8aPr7-1">
          <mxGeometry x="320" y="702" width="40" height="40" as="geometry" />
        </mxCell>
        <mxCell id="xuVGkZKa3LN1IdFfRrhP-21" value="" style="endArrow=none;dashed=1;html=1;rounded=1;shadow=0;strokeColor=#6c8ebf;strokeWidth=1;fontFamily=Ubuntu;fontSize=14;fontStyle=0;fillColor=#dae8fc;exitX=0.5;exitY=1;exitDx=0;exitDy=0;entryX=0;entryY=0;entryDx=0;entryDy=0;" edge="1" parent="2uTVPKC6mBXRzxm8aPr7-1" source="xuVGkZKa3LN1IdFfRrhP-12" target="xuVGkZKa3LN1IdFfRrhP-18">
          <mxGeometry width="50" height="50" relative="1" as="geometry">
            <mxPoint x="400" y="570" as="sourcePoint" />
            <mxPoint x="450" y="520" as="targetPoint" />
          </mxGeometry>
        </mxCell>
      </root>
    </mxGraphModel>
  </diagram>
</mxfile>
